<svg width="21" height="25" viewBox="0 0 21 25" fill="none" xmlns="http://www.w3.org/2000/svg">
<path d="M16.9959 13.3309C17.0197 11.4818 18.0128 9.73214 19.5881 8.76363C18.5943 7.34428 16.9297 6.44437 15.1979 6.39018C13.3507 6.19629 11.5599 7.49549 10.6187 7.49549C9.65917 7.49549 8.20992 6.40943 6.64932 6.44154C4.61514 6.50726 2.71877 7.66378 1.7291 9.44219C-0.398296 13.1255 1.18855 18.5386 3.22642 21.5159C4.24601 22.9738 5.43762 24.6023 6.99682 24.5445C8.52258 24.4812 9.09243 23.5716 10.9342 23.5716C12.7588 23.5716 13.2934 24.5445 14.8843 24.5078C16.5215 24.4812 17.553 23.0434 18.5368 21.5717C19.2694 20.5329 19.8331 19.3848 20.2071 18.17C18.283 17.3562 16.9982 15.4199 16.9959 13.3309Z" fill="white"/>
<path d="M13.9911 4.43218C14.8838 3.36055 15.3236 1.98315 15.2171 0.592499C13.8532 0.735741 12.5935 1.38756 11.6887 2.41807C10.804 3.42493 10.3436 4.7781 10.4306 6.1156C11.7949 6.12965 13.1362 5.4955 13.9911 4.43218Z" fill="white"/>
</svg>
