<svg width="27" height="30" viewBox="0 0 27 30" fill="none" xmlns="http://www.w3.org/2000/svg">
<g filter="url(#filter0_ii_7_11986)">
<path d="M1.23 1.29182C0.909904 1.63062 0.720703 2.15642 0.720703 2.83732V27.1649C0.720703 27.8469 0.909904 28.3716 1.23 28.7104L1.3114 28.7896L14.9393 15.1617V15.0011V14.8405L1.3114 1.21152L1.23 1.29182Z" fill="url(#paint0_linear_7_11986)"/>
<path d="M19.4812 19.7058L14.9393 15.1617V15.0011V14.8405L19.4823 10.2975L19.5846 10.3558L24.9669 13.4138C26.5036 14.2872 26.5036 15.7161 24.9669 16.5906L19.5846 19.6486L19.4812 19.7058Z" fill="url(#paint1_linear_7_11986)"/>
<g filter="url(#filter1_i_7_11986)">
<path d="M19.5851 19.6475L14.9387 15.0011L1.23047 28.7104C1.73647 29.2472 2.57357 29.3132 3.51627 28.7786L19.5851 19.6475Z" fill="url(#paint2_linear_7_11986)"/>
</g>
<path d="M19.5851 10.3547L3.51627 1.22472C2.57357 0.689024 1.73647 0.756125 1.23047 1.29292L14.9398 15.0022L19.5851 10.3547Z" fill="url(#paint3_linear_7_11986)"/>
</g>
<defs>
<filter id="filter0_ii_7_11986" x="0.720703" y="0.855042" width="25.3987" height="28.2928" filterUnits="userSpaceOnUse" color-interpolation-filters="sRGB">
<feFlood flood-opacity="0" result="BackgroundImageFix"/>
<feBlend mode="normal" in="SourceGraphic" in2="BackgroundImageFix" result="shape"/>
<feColorMatrix in="SourceAlpha" type="matrix" values="0 0 0 0 0 0 0 0 0 0 0 0 0 0 0 0 0 0 127 0" result="hardAlpha"/>
<feOffset dy="-0.15"/>
<feComposite in2="hardAlpha" operator="arithmetic" k2="-1" k3="1"/>
<feColorMatrix type="matrix" values="0 0 0 0 0 0 0 0 0 0 0 0 0 0 0 0 0 0 0.12 0"/>
<feBlend mode="normal" in2="shape" result="effect1_innerShadow_7_11986"/>
<feColorMatrix in="SourceAlpha" type="matrix" values="0 0 0 0 0 0 0 0 0 0 0 0 0 0 0 0 0 0 127 0" result="hardAlpha"/>
<feOffset dy="0.15"/>
<feComposite in2="hardAlpha" operator="arithmetic" k2="-1" k3="1"/>
<feColorMatrix type="matrix" values="0 0 0 0 1 0 0 0 0 1 0 0 0 0 1 0 0 0 0.25 0"/>
<feBlend mode="normal" in2="effect1_innerShadow_7_11986" result="effect2_innerShadow_7_11986"/>
</filter>
<filter id="filter1_i_7_11986" x="1.23047" y="15.0011" width="18.3546" height="14.1467" filterUnits="userSpaceOnUse" color-interpolation-filters="sRGB">
<feFlood flood-opacity="0" result="BackgroundImageFix"/>
<feBlend mode="normal" in="SourceGraphic" in2="BackgroundImageFix" result="shape"/>
<feColorMatrix in="SourceAlpha" type="matrix" values="0 0 0 0 0 0 0 0 0 0 0 0 0 0 0 0 0 0 127 0" result="hardAlpha"/>
<feOffset dy="-0.15"/>
<feComposite in2="hardAlpha" operator="arithmetic" k2="-1" k3="1"/>
<feColorMatrix type="matrix" values="0 0 0 0 0 0 0 0 0 0 0 0 0 0 0 0 0 0 0.08 0"/>
<feBlend mode="normal" in2="shape" result="effect1_innerShadow_7_11986"/>
</filter>
<linearGradient id="paint0_linear_7_11986" x1="13.7313" y1="2.57992" x2="-4.72891" y2="21.0401" gradientUnits="userSpaceOnUse">
<stop stop-color="#00A0FF"/>
<stop offset="0.0066" stop-color="#00A1FF"/>
<stop offset="0.2601" stop-color="#00BEFF"/>
<stop offset="0.5122" stop-color="#00D2FF"/>
<stop offset="0.7604" stop-color="#00DFFF"/>
<stop offset="1" stop-color="#00E3FF"/>
</linearGradient>
<linearGradient id="paint1_linear_7_11986" x1="26.9672" y1="15.0011" x2="0.351731" y2="15.0011" gradientUnits="userSpaceOnUse">
<stop stop-color="#FFE000"/>
<stop offset="0.4087" stop-color="#FFBD00"/>
<stop offset="0.7754" stop-color="#FFA500"/>
<stop offset="1" stop-color="#FF9C00"/>
</linearGradient>
<linearGradient id="paint2_linear_7_11986" x1="17.0618" y1="17.5244" x2="-7.97256" y2="42.5587" gradientUnits="userSpaceOnUse">
<stop stop-color="#FF3A44"/>
<stop offset="1" stop-color="#C31162"/>
</linearGradient>
<linearGradient id="paint3_linear_7_11986" x1="-2.22199" y1="-6.8055" x2="8.95654" y2="4.37304" gradientUnits="userSpaceOnUse">
<stop stop-color="#32A071"/>
<stop offset="0.0685" stop-color="#2DA771"/>
<stop offset="0.4762" stop-color="#15CF74"/>
<stop offset="0.8009" stop-color="#06E775"/>
<stop offset="1" stop-color="#00F076"/>
</linearGradient>
</defs>
</svg>
