<svg width="40" height="40" viewBox="0 0 40 40" fill="none" xmlns="http://www.w3.org/2000/svg">
<path d="M15.3125 20.7969C16.28 20.7969 17.2101 21.1574 17.9238 21.8037L18.0635 21.9365C18.7931 22.6662 19.2031 23.6556 19.2031 24.6875C19.2031 25.361 19.0285 26.0213 18.6982 26.6045L18.5479 26.8486C18.1737 27.4086 17.6611 27.8606 17.0625 28.1621L16.8018 28.2822C16.1798 28.5399 15.5029 28.6306 14.8379 28.5488L14.5537 28.5029C13.8935 28.3716 13.2799 28.0721 12.7725 27.6348L12.5615 27.4385C12.0855 26.9624 11.7424 26.3722 11.5635 25.7266L11.4971 25.4463C11.3658 24.786 11.4083 24.1049 11.6182 23.4688L11.7178 23.1982C11.9755 22.5762 12.3899 22.0335 12.918 21.6211L13.1514 21.4521C13.7911 21.0248 14.5432 20.7969 15.3125 20.7969ZM24.6875 20.7969C25.655 20.7969 26.5851 21.1574 27.2988 21.8037L27.4385 21.9365C28.1681 22.6662 28.5781 23.6556 28.5781 24.6875C28.5781 25.361 28.4035 26.0213 28.0732 26.6045L27.9229 26.8486C27.5487 27.4086 27.0361 27.8606 26.4375 28.1621L26.1768 28.2822C25.5548 28.5399 24.8779 28.6306 24.2129 28.5488L23.9287 28.5029C23.2685 28.3716 22.6549 28.0721 22.1475 27.6348L21.9365 27.4385C21.4605 26.9624 21.1174 26.3722 20.9385 25.7266L20.8721 25.4463C20.722 24.6916 20.7983 23.9091 21.0928 23.1982C21.3505 22.5762 21.7649 22.0335 22.293 21.6211L22.5264 21.4521C23.1661 21.0248 23.9182 20.7969 24.6875 20.7969ZM15.9766 23.085C15.6598 22.9538 15.3109 22.9195 14.9746 22.9863C14.6801 23.0449 14.406 23.1788 14.1797 23.374L14.0859 23.4609C13.8434 23.7035 13.6782 24.0132 13.6113 24.3496C13.5529 24.6439 13.5714 24.9479 13.665 25.2314L13.71 25.3516C13.8249 25.6289 14.0097 25.8709 14.2451 26.0547L14.3486 26.1299C14.6338 26.3205 14.9695 26.4219 15.3125 26.4219C15.7151 26.4219 16.1035 26.2823 16.4121 26.0293L16.5391 25.9141C16.8643 25.5888 17.0469 25.1475 17.0469 24.6875C17.0469 24.3445 16.9455 24.0088 16.7549 23.7236C16.5881 23.4741 16.3595 23.273 16.0928 23.1387L15.9766 23.085ZM25.3516 23.085C25.0348 22.9538 24.6859 22.9195 24.3496 22.9863C24.0132 23.0532 23.7035 23.2184 23.4609 23.4609C23.2184 23.7035 23.0532 24.0132 22.9863 24.3496C22.9279 24.6439 22.9464 24.9479 23.04 25.2314L23.085 25.3516C23.2162 25.6684 23.4385 25.9394 23.7236 26.1299C24.0088 26.3205 24.3445 26.4219 24.6875 26.4219C25.0901 26.4219 25.4785 26.2823 25.7871 26.0293L25.9141 25.9141C26.2393 25.5888 26.4219 25.1475 26.4219 24.6875C26.4219 24.3445 26.3205 24.0088 26.1299 23.7236C25.9631 23.4741 25.7345 23.273 25.4678 23.1387L25.3516 23.085ZM23.1982 11.7178C23.8202 11.4601 24.4972 11.3694 25.1621 11.4512L25.4463 11.4971C26.1065 11.6284 26.7201 11.9279 27.2275 12.3652L27.4385 12.5615C27.9145 13.0376 28.2576 13.6278 28.4365 14.2734L28.5029 14.5537C28.6342 15.214 28.5917 15.8951 28.3818 16.5312L28.2822 16.8018C28.0245 17.4238 27.6101 17.9665 27.082 18.3789L26.8486 18.5479C26.2089 18.9752 25.4568 19.2031 24.6875 19.2031C23.72 19.2031 22.7899 18.8426 22.0762 18.1963L21.9365 18.0635C21.2069 17.3338 20.7969 16.3444 20.7969 15.3125C20.7969 14.6393 20.9718 13.9795 21.3018 13.3965L21.4521 13.1514C21.8263 12.5914 22.3389 12.1394 22.9375 11.8379L23.1982 11.7178ZM15.3125 11.4219C16.28 11.4219 17.2101 11.7824 17.9238 12.4287L18.0635 12.5615C18.7931 13.2912 19.2031 14.2806 19.2031 15.3125C19.2031 15.986 19.0285 16.6463 18.6982 17.2295L18.5479 17.4736C18.1737 18.0336 17.6611 18.4856 17.0625 18.7871L16.8018 18.9072C16.1798 19.1649 15.5029 19.2556 14.8379 19.1738L14.5537 19.1279C13.799 18.9778 13.1056 18.6076 12.5615 18.0635C12.0855 17.5874 11.7424 16.9972 11.5635 16.3516L11.4971 16.0713C11.3658 15.411 11.4083 14.7299 11.6182 14.0938L11.7178 13.8232C11.9755 13.2012 12.3899 12.6585 12.918 12.2461L13.1514 12.0771C13.7911 11.6498 14.5432 11.4219 15.3125 11.4219ZM15.9766 13.71C15.6598 13.5788 15.3109 13.5445 14.9746 13.6113C14.6801 13.6699 14.406 13.8038 14.1797 13.999L14.0859 14.0859C13.8434 14.3285 13.6782 14.6382 13.6113 14.9746C13.5529 15.2689 13.5714 15.5729 13.665 15.8564L13.71 15.9766C13.8249 16.2539 14.0097 16.4959 14.2451 16.6797L14.3486 16.7549C14.6338 16.9455 14.9695 17.0469 15.3125 17.0469C15.7151 17.0469 16.1035 16.9073 16.4121 16.6543L16.5391 16.5391C16.8643 16.2138 17.0469 15.7725 17.0469 15.3125C17.0469 15.0124 16.9694 14.7179 16.8223 14.458L16.7549 14.3486C16.5881 14.0991 16.3595 13.898 16.0928 13.7637L15.9766 13.71ZM24.6875 13.5781C24.2849 13.5781 23.8965 13.7177 23.5879 13.9707L23.4609 14.0859C23.1357 14.4112 22.9531 14.8525 22.9531 15.3125C22.9531 15.6555 23.0545 15.9912 23.2451 16.2764C23.4119 16.5259 23.6405 16.7269 23.9072 16.8613L24.0234 16.915C24.3402 17.0462 24.6891 17.0805 25.0254 17.0137C25.3199 16.9551 25.594 16.8212 25.8203 16.626L25.9141 16.5391C26.1264 16.3267 26.2796 16.0634 26.3594 15.7754L26.3887 15.6504C26.4555 15.3141 26.4212 14.9652 26.29 14.6484C26.1751 14.3711 25.9903 14.1291 25.7549 13.9453L25.6514 13.8701C25.3662 13.6795 25.0305 13.5781 24.6875 13.5781Z" fill="#475569" stroke="#475569" stroke-width="0.09375"/>
</svg>
