<svg width="24" height="24" viewBox="0 0 24 24" fill="none" xmlns="http://www.w3.org/2000/svg">
<path d="M11.999 6.41797C12.1055 6.41797 12.211 6.434 12.3125 6.46484L12.4121 6.5C12.5106 6.54089 12.6026 6.59651 12.6846 6.66406L12.7627 6.73535L20.2627 14.2354C20.338 14.3104 20.4021 14.3959 20.4521 14.4893L20.4971 14.585C20.5515 14.716 20.5801 14.8571 20.5801 14.999C20.5801 15.1054 20.5641 15.2111 20.5332 15.3125L20.4971 15.4121C20.4563 15.5104 20.4013 15.6017 20.334 15.6836L20.2627 15.7627C20.1876 15.838 20.1022 15.9021 20.0088 15.9521L19.9121 15.9971C19.7811 16.0514 19.6408 16.0801 19.499 16.0801C19.3572 16.0801 19.2169 16.0514 19.0859 15.9971C18.9875 15.9562 18.8954 15.9015 18.8135 15.834L18.7354 15.7627L12 9.02734L11.9668 9.06055L5.2627 15.7627C5.06015 15.9652 4.78544 16.0791 4.49902 16.0791L4.39258 16.0732C4.18046 16.0522 3.9793 15.9691 3.81445 15.834L3.73535 15.7627C3.53284 15.5602 3.41899 15.2854 3.41895 14.999L3.42383 14.8926C3.44478 14.6806 3.52814 14.4793 3.66309 14.3145L3.73535 14.2354L11.2354 6.73535C11.3104 6.66005 11.3959 6.59597 11.4893 6.5459L11.5859 6.5C11.7169 6.44571 11.8573 6.41797 11.999 6.41797Z" fill="#475569" stroke="#475569" stroke-width="0.09375"/>
</svg>
