<svg width="22" height="21" viewBox="0 0 22 21" fill="none" xmlns="http://www.w3.org/2000/svg">
<path d="M21.4234 8.118C21.3297 7.82974 21.1527 7.57568 20.9148 7.38783C20.6769 7.19998 20.3887 7.08673 20.0866 7.06237L14.5553 6.61612L12.4197 1.45143C12.3042 1.17001 12.1076 0.92929 11.855 0.759874C11.6023 0.590458 11.305 0.5 11.0008 0.5C10.6966 0.5 10.3992 0.590458 10.1466 0.759874C9.89394 0.92929 9.69736 1.17001 9.58187 1.45143L7.44812 6.61518L1.91406 7.06237C1.61141 7.08797 1.32305 7.20231 1.0851 7.39106C0.847144 7.57982 0.670187 7.8346 0.576395 8.12348C0.482603 8.41237 0.476148 8.72251 0.557838 9.01504C0.639527 9.30758 0.805729 9.5695 1.03562 9.768L5.25437 13.4083L3.96906 18.8514C3.89717 19.1471 3.91477 19.4576 4.01962 19.7432C4.12448 20.0289 4.31185 20.277 4.55796 20.456C4.80407 20.635 5.09781 20.7369 5.40191 20.7486C5.70601 20.7604 6.00674 20.6815 6.26593 20.5221L11.0003 17.6083L15.7375 20.5221C15.9968 20.6796 16.2969 20.757 16.6001 20.7444C16.9032 20.7317 17.1958 20.6297 17.4411 20.451C17.6864 20.2724 17.8733 20.0252 17.9784 19.7406C18.0835 19.4559 18.102 19.1466 18.0316 18.8514L16.7416 13.4074L20.9603 9.76706C21.1921 9.56889 21.3598 9.3064 21.4422 9.01284C21.5247 8.71927 21.5181 8.40784 21.4234 8.118ZM19.9853 8.63081L15.4197 12.5683C15.3156 12.6581 15.2381 12.7747 15.1958 12.9055C15.1535 13.0362 15.1479 13.1761 15.1797 13.3099L16.5747 19.1974C16.5783 19.2055 16.5787 19.2147 16.5757 19.223C16.5727 19.2314 16.5667 19.2383 16.5587 19.2424C16.5419 19.2555 16.5372 19.2527 16.5231 19.2424L11.3931 16.0877C11.275 16.015 11.139 15.9766 11.0003 15.9766C10.8616 15.9766 10.7256 16.015 10.6075 16.0877L5.47749 19.2442C5.46343 19.2527 5.45968 19.2555 5.44187 19.2442C5.43396 19.2402 5.42789 19.2333 5.42493 19.2249C5.42196 19.2166 5.42232 19.2074 5.42593 19.1992L6.82093 13.3117C6.85273 13.178 6.84715 13.0381 6.80483 12.9073C6.7625 12.7766 6.68505 12.6599 6.58093 12.5702L2.01531 8.63268C2.00406 8.62331 1.99374 8.61487 2.00312 8.58581C2.01249 8.55675 2.01999 8.5605 2.03406 8.55862L8.02656 8.07487C8.164 8.06308 8.29554 8.01361 8.40669 7.9319C8.51783 7.85019 8.6043 7.73941 8.65656 7.61175L10.9647 2.02331C10.9722 2.00737 10.975 1.99987 10.9975 1.99987C11.02 1.99987 11.0228 2.00737 11.0303 2.02331L13.3441 7.61175C13.3968 7.73946 13.4838 7.85012 13.5955 7.93152C13.7072 8.01291 13.8391 8.06187 13.9769 8.073L19.9694 8.55675C19.9834 8.55675 19.9919 8.55675 20.0003 8.58393C20.0087 8.61112 20.0003 8.62143 19.9853 8.63081Z" fill="#F59E0B"/>
</svg>
